/* XPM */
static char *ebitcash16[] = {
/* columns rows colors chars-per-pixel */
"16 16 82 1 ",
"  c None",
". c #FFCA00",
"X c #FFCB00",
"o c #FFCC00",
"O c #FFCD00",
"+ c #FFCE00",
"@ c #FFCF00",
"# c #FFCE01",
"$ c #FFCD04",
"% c #FFCD07",
"& c #FFCE07",
"* c #FFCD08",
"= c #FFCE08",
"- c #FFD000",
"; c #FFD100",
": c #FFD200",
"> c #FFD300",
", c #FFD400",
"< c #FFD500",
"1 c #FFCF10",
"2 c #FFCF11",
"3 c #FFD016",
"4 c #FFD21C",
"5 c #FFD21F",
"6 c #FFD326",
"7 c #FFD429",
"8 c #FFD42A",
"9 c #FFD42B",
"0 c #FFD73F",
"q c #FFD83D",
"w c #FFD93F",
"e c #FFD941",
"r c #FFD946",
"t c #FFDB4A",
"y c #FFDC4E",
"u c #FFDE5B",
"i c #FFE062",
"p c #FFE063",
"a c #FFE26C",
"s c #FFE270",
"d c #FFE475",
"f c #FFE47A",
"g c #FFE583",
"h c #FFE786",
"j c #FFE88A",
"k c #FFE88B",
"l c #FFE893",
"z c #FFEDA4",
"x c #FFEEA8",
"c c #FFEEA9",
"v c #FFEEAA",
"b c #FFEEAC",
"n c #FFEFAF",
"m c #FFEFB0",
"M c #FFEFB3",
"N c #FFF0B6",
"B c #FFF0B7",
"V c #FFF1B8",
"C c #FFF1B9",
"Z c #FFF2BB",
"A c #FFF2BD",
"S c #FFF3C5",
"D c #FFF5CE",
"F c #FFF6D0",
"G c #FFF6D2",
"H c #FFF6D4",
"J c #FFF7D6",
"K c #FFF7D9",
"L c #FFF7DA",
"P c #FFF8DB",
"I c #FFF8DD",
"U c #FFF8DE",
"Y c #FFF9E2",
"T c #FFF9E3",
"R c #FFFAE4",
"E c #FFFCF2",
"W c #FFFEFA",
"Q c #FFFEFB",
"! c #FFFEFC",
"~ c #FFFFFD",
"^ c #FFFFFE",
"/ c white",
/* pixels */
"       ++       ",
"    @@>;-;+@    ",
"   @<O.5ty#,@   ",
"  O:X$0cRTu1;O  ",
" o<X6A//I^/G7,o ",
" oO2F/Ehgj^/xoo ",
" >.a//zsBp!/K&> ",
"O;XN//UNMD//P%;X",
"O;%J//DCZVmmho;X",
" >=K/QiMdfbnwX> ",
" oov/^klhE/P3Oo ",
" o,8H/~LW/S9X<o ",
"  +;2uYRmr*X:+  ",
"   @,Oeq4.O<@   ",
"    @+:-;>@@    ",
"       ++       "
};
