/* XPM */
static char *ebitcash64[] = {
/* columns rows colors chars-per-pixel */
"64 64 220 2 ",
"   c None",
".  c #FFC800",
"X  c #FFC900",
"o  c #FFCA00",
"O  c #FFCB00",
"+  c #FFCA01",
"@  c #FFCB01",
"#  c #FFCB02",
"$  c #FFCB03",
"%  c #FFCC00",
"&  c #FFCD00",
"*  c #FFCC01",
"=  c #FFCE00",
"-  c #FFCF00",
";  c #FFCC02",
":  c #FFCC04",
">  c #FFCC05",
",  c #FFCD05",
"<  c #FFCD06",
"1  c #FFCD07",
"2  c #FFCE09",
"3  c #FFCD0A",
"4  c #FFCD0B",
"5  c #FFCE0A",
"6  c #FFCE0B",
"7  c #FFCE0C",
"8  c #FFCE0D",
"9  c #FFCE0F",
"0  c #FFCF0F",
"q  c #FFD000",
"w  c #FFD100",
"e  c #FFD200",
"r  c #FFD300",
"t  c #FFD400",
"y  c #FFD500",
"u  c #FFCF12",
"i  c #FFCF13",
"p  c #FFCF15",
"a  c #FFD012",
"s  c #FFD013",
"d  c #FFD015",
"f  c #FFD016",
"g  c #FFD017",
"h  c #FFD118",
"j  c #FFD019",
"k  c #FFD11A",
"l  c #FFD11B",
"z  c #FFD11D",
"x  c #FFD21D",
"c  c #FFD21E",
"v  c #FFD21F",
"b  c #FFD220",
"n  c #FFD221",
"m  c #FFD321",
"M  c #FFD322",
"N  c #FFD223",
"B  c #FFD323",
"V  c #FFD324",
"C  c #FFD325",
"Z  c #FFD327",
"A  c #FFD427",
"S  c #FFD42A",
"D  c #FFD42B",
"F  c #FFD42C",
"G  c #FFD52D",
"H  c #FFD52E",
"J  c #FFD632",
"K  c #FFD633",
"L  c #FFD634",
"P  c #FFD635",
"I  c #FFD735",
"U  c #FFD736",
"Y  c #FFD737",
"T  c #FFD73A",
"R  c #FFD83A",
"E  c #FFD83B",
"W  c #FFD83E",
"Q  c #FFD83F",
"!  c #FFD93F",
"~  c #FFD941",
"^  c #FFD942",
"/  c #FFD944",
"(  c #FFDA44",
")  c #FFDA45",
"_  c #FFDA46",
"`  c #FFDA47",
"'  c #FFDA49",
"]  c #FFDA4A",
"[  c #FFDB4C",
"{  c #FFDB4D",
"}  c #FFDC4E",
"|  c #FFDC50",
" . c #FFDD54",
".. c #FFDD55",
"X. c #FFDE58",
"o. c #FFDE5A",
"O. c #FFDE5B",
"+. c #FFDE5D",
"@. c #FFDE5E",
"#. c #FFDF60",
"$. c #FFDF62",
"%. c #FFE062",
"&. c #FFE065",
"*. c #FFE066",
"=. c #FFE068",
"-. c #FFE168",
";. c #FFE16A",
":. c #FFE26C",
">. c #FFE26D",
",. c #FFE26F",
"<. c #FFE371",
"1. c #FFE372",
"2. c #FFE373",
"3. c #FFE375",
"4. c #FFE476",
"5. c #FFE477",
"6. c #FFE478",
"7. c #FFE479",
"8. c #FFE57B",
"9. c #FFE57D",
"0. c #FFE57F",
"q. c #FFE581",
"w. c #FFE684",
"e. c #FFE685",
"r. c #FFE786",
"t. c #FFE787",
"y. c #FFE788",
"u. c #FFE789",
"i. c #FFE88A",
"p. c #FFE88B",
"a. c #FFE88C",
"s. c #FFE88D",
"d. c #FFE98F",
"f. c #FFE990",
"g. c #FFE991",
"h. c #FFE992",
"j. c #FFEA95",
"k. c #FFEA96",
"l. c #FFEA97",
"z. c #FFEA98",
"x. c #FFEB99",
"c. c #FFEB9A",
"v. c #FFEB9B",
"b. c #FFEB9D",
"n. c #FFECA0",
"m. c #FFECA1",
"M. c #FFECA2",
"N. c #FFEDA3",
"B. c #FFEDA5",
"V. c #FFEDA6",
"C. c #FFEDA7",
"Z. c #FFEEA8",
"A. c #FFEEA9",
"S. c #FFEEAA",
"D. c #FFEEAB",
"F. c #FFEFAE",
"G. c #FFEFB0",
"H. c #FFEFB1",
"J. c #FFF0B5",
"K. c #FFF0B6",
"L. c #FFF1B7",
"P. c #FFF1B9",
"I. c #FFF2BB",
"U. c #FFF2BC",
"Y. c #FFF2BD",
"T. c #FFF2BE",
"R. c #FFF2BF",
"E. c #FFF2C0",
"W. c #FFF3C1",
"Q. c #FFF3C2",
"!. c #FFF3C3",
"~. c #FFF3C4",
"^. c #FFF4C6",
"/. c #FFF4C7",
"(. c #FFF4C9",
"). c #FFF4CA",
"_. c #FFF5CC",
"`. c #FFF5CF",
"'. c #FFF6D0",
"]. c #FFF6D3",
"[. c #FFF7D4",
"{. c #FFF7D6",
"}. c #FFF7D7",
"|. c #FFF7D9",
" X c #FFF7DA",
".X c #FFF8DB",
"XX c #FFF8DE",
"oX c #FFF9DF",
"OX c #FFF9E0",
"+X c #FFF9E1",
"@X c #FFF9E2",
"#X c #FFF9E3",
"$X c #FFFAE4",
"%X c #FFFAE5",
"&X c #FFFAE7",
"*X c #FFFAE8",
"=X c #FFFBE9",
"-X c #FFFBEA",
";X c #FFFBEB",
":X c #FFFBED",
">X c #FFFCEE",
",X c #FFFCEF",
"<X c #FFFCF0",
"1X c #FFFCF1",
"2X c #FFFCF2",
"3X c #FFFCF3",
"4X c #FFFDF3",
"5X c #FFFDF4",
"6X c #FFFDF5",
"7X c #FFFDF6",
"8X c #FFFDF7",
"9X c #FFFEF8",
"0X c #FFFEF9",
"qX c #FFFEFA",
"wX c #FFFEFB",
"eX c #FFFEFC",
"rX c #FFFFFC",
"tX c #FFFFFD",
"yX c #FFFFFE",
"uX c white",
/* pixels */
"                                                            & % % &                                                             ",
"                                                - & & & r y w & & w y r & & = -                                                 ",
"                                          q = r t q = % % % % % % % % % % = q t t = q                                           ",
"                                      - r r = % % % % % % % % % % % % % % % % % % = r r -                                       ",
"                                  - y - % % % % % % % % % % % % % % % % % % % % % % % % - y -                                   ",
"                              - t - % % % % % % % % % % % % % % % % % % % % % % % % % % % % - t -                               ",
"                          = q e % % % % % % % % % % % % % % % % % % % % % % % % % % % % % % % % e q =                           ",
"                        - y & % % % % % % % % % % % % % % % % % % % % % % % % % % % % % % % % % % & y -                         ",
"                      - t % % % % % % % % % % % % % % % % % % O O O % % % O O O % % % % % % % % % % % t -                       ",
"                    q e % % % % % % % % % % % % % % % % % O B Y.E.W.r.X #.W.E.W._ o % % % % % % % % % % e q                     ",
"                  q e % % % % % % % % % % % % % % % % % % o { uXuXuXj.. B.uXuXuX! O % % % % % % % % % % % e q                   ",
"                = r % % % % % % % % % % % % % % % % % % % o 1.uXuXuX&.X ^.uXuX2Xx O % % % % % % % % % % % % r =                 ",
"              O t % % % % % % % % % % % % % % % % % O o o . x.uXuXuX..v %XuXuX}.% o O % % % % % % % % % % % % t &               ",
"            o y % % % % % % % % % % % % % % % O o O g ) 4.m.=XuXuXuX<X,XyXuXuX:Xz.;.P 2 o O % % % % % % % % % % y o             ",
"            q & % % % % % % % % % % % % % O o i @.H.=XuXuXuXuXuXuXuXuXuXuXuXuXuXuXuXtX{.y.D o O % % % % % % % % & q             ",
"          % e % % % % % % % % % % % % % o f 0.OXuXuXuXuXuXuXuXuXuXuXuXuXuXuXuXuXuXuXuXuXuX5Xk.j o % % % % % % % % e %           ",
"          y % % % % % % % % % % % % O O +.XXuXuXuXuXuXuXuXuXuXuXuXuXuXuXuXuXuXuXuXuXuXuXuXuXuX.XQ o % % % % % % % % y           ",
"        % - % % % % % % % % % % % O 8 b.uXuXuXuXuXuXuXuXuXuXuXuXuXuXuXuXuXuXuXuXuXuXuXuXuXuXuXuX1X_ o % % % % % % % - %         ",
"        y % % % % % % % % % % % O p Y.uXuXuXuXuXuXuXuXuXuXuXuXuXuXqXqXuXuXuXuXuXuXuXuXuXuXuXuXuXuX=XZ O % % % % % % % y         ",
"      % - % % % % % % % % % % O 9 E.uXuXuXuXuXuXuXuXuXuXuXuX;Xh.] F D / y.;XuXuXuXuXuXuXuXuXuXuXuXuXK.$ % % % % % % % - %       ",
"      r % % % % % % % % % % % # B.uXuXuXuXuXuXuXuXuXuXuXuXP.C X X X X X X D  XuXuXuXuXuXuXuXuXuXuXuXyX_ o % % % % % % % r       ",
"    % r % % % % % % % % % % o -.uXuXuXuXuXuXuXuXuXuXuXuXJ.4 X 0 [ >.%.S O o ) wXuXuXuXuXuXuXuXuXuXuXuXD.O % % % % % % % r %     ",
"    & = % % % % % % % % % O v ;XuXuXuXuXuXuXuXuXuXuXuXXXg X ) }.uXuXuX4X#.o ; _.uXuXuXuXuXuXuXuXuXuXuX-Xd O % % % % % % = &     ",
"    t % % % % % % % % % % o z.uXuXuXuXuXuXuXuXuXuXuXuXO.. L 1XuXuXuXuXuX@X0 X l.uXuXuXuXuXuXuXuXuXuXuXuX^ o % % % % % % % t     ",
"  % t % % % % % % % % % O V 3XuXuXuXuXuXuXuXuXuXuXuX].1 $ U.uXuXuXuXuXuXrXH X 9.uXuXuXuXuXuXuXuXuXuXuXuX:.o % % % % % % % t %   ",
"  % q % % % % % % % % % o w.uXuXuXuXuXuXuXuXuXuXuXuX8.. Y uXuXuXuXuXuXuXuXL X 7.uXuXuXuXuXuXuXuXuXuXuXuXi.o % % % % % % % q %   ",
"  % = % % % % % % % % % 5 |.uXuXuXuXuXuXuXuXuXuXuXeXI X ) Z.C.C.C.C.C.C.M.k X t.uXuXuXuXuXuXuXuXuXuXuXuXc.o % % % % % % % = %   ",
"  & % % % % % % % % % o ! yXuXuXuXuXuXuXuXuXuXuXuX+X6 O O o o o o o o o o O o M.uXuXuXuXuXuXuXuXuXuXuXuXn.o % % % % % % % % &   ",
"  r % % % % % % % % % o w.uXuXuXuXuXuXuXuXuXuXuXuX!.9 0 0 0 0 0 0 0 0 0 0 0 0 /.uXuXuXuXuXuXuXuXuXuXuXuXv.o % % % % % % % % r   ",
"  y % % % % % % % % % @ E.uXuXuXuXuXuXuXuXuXuXuXuX7X#X#X#X#X#X#X#X#X#X#X#X#X$XwXuXuXuXuXuXuXuXuXuXuXuXuXa.o % % % % % % % % y   ",
"& e % % % % % % % % O a *XuXuXuXuXuXuXuXuXuXuXuXuXuXuXuXuXuXuXuXuXuXuXuXuXuXuXuXuXuXuXuXuXuXuXuXuXuXuXuX4.o % % % % % % % % w & ",
"% & % % % % % % % % O J rXuXuXuXuXuXuXuXuXuXuXuXuXuXuXuXuXuXuXuXuXuXuXuXuXuXuXuXuXuXuXuXuXuXuXuXuXuXuXuXX.o % % % % % % % % & % ",
"% & % % % % % % % % o  .uXuXuXuXuXuXuXuXuXuXuXuXuXuXuXuXuXuXuXuXuXuXuXuXuXuXuXuXuXuXuXuXuXuXuXuXuXuXuXtXU O % % % % % % % % & % ",
"& e % % % % % % % % o 2.uXuXuXuXuXuXuXuXuXuXuXuXuXuXuXuXuXuXuXuXuXuXuXuXuXuXuXuXuXuXuXuXuXuXuXuXuXuXuX;Xd O % % % % % % % % w & ",
"  y % % % % % % % % o i.uXuXuXuXuXuXuXuXuXuXuXuXyX6X6X6X6X6X6X5X5X5X5X4X5X4X4X4X4X2X2X2X2X2X2X2X1X1X1XI.* % % % % % % % % % y   ",
"  r % % % % % % % % o c.uXuXuXuXuXuXuXuXuXuXuXuX(.N M M m m m m m m b b b b v v v v v v c c c c x x x s % % % % % % % % % % r   ",
"  & % % % % % % % % o n.uXuXuXuXuXuXuXuXuXuXuXuXl.X O X X X X X X X X o O o X X X X X X X X X X X X X O % % % % % % % % % % &   ",
"  % = % % % % % % % o v.uXuXuXuXuXuXuXuXuXuXuXuX8.X l t.u.i.p.a.a.s.d.) o _ f.d.d.d.d.d.d.d.d.d.d.f.9.< % % % % % % % % % = %   ",
"  % q % % % % % % % o a.uXuXuXuXuXuXuXuXuXuXuXuX>.. W uXuXuXuXuXuXuXuX} . N.uXuXuXuXuXuXuXuXuXuXuXuXm.+ % % % % % % % % % q %   ",
"  % t % % % % % % % o ,.uXuXuXuXuXuXuXuXuXuXuXuX1.X L yXuXuXuXuXuXuXoX8 > ].uXuXuXuXuXuXuXuXuXuXuX8XG O % % % % % % % % % t %   ",
"    t % % % % % % % o _ uXuXuXuXuXuXuXuXuXuXuXuXf.X u &XuXuXuXuXuXuX2.. E eXuXuXuXuXuXuXuXuXuXuXuXn.o % % % % % % % % % % t     ",
"    & = % % % % % % O h :XuXuXuXuXuXuXuXuXuXuXuX).; o 3.uXuXuXuXuXS.1 o F.uXuXuXuXuXuXuXuXuXuXuX>XV O % % % % % % % % % = &     ",
"    % r % % % % % % % O G.uXuXuXuXuXuXuXuXuXuXuXeX` X * o.F.!.F.$.: X *.yXuXuXuXuXuXuXuXuXuXuXuX<.o % % % % % % % % % % r %     ",
"      r % % % % % % % o [ uXuXuXuXuXuXuXuXuXuXuXuX.XD X X o O X . # >.9XuXuXuXuXuXuXuXuXuXuXuXH.: % % % % % % % % % % % r       ",
"      % - % % % % % % % : Y.uXuXuXuXuXuXuXuXuXuXuXuX=Xq.T b v K =.Q.uXuXuXuXuXuXuXuXuXuXuXuX'.g O % % % % % % % % % % - %       ",
"        y % % % % % % % O G >XuXuXuXuXuXuXuXuXuXuXuXuXuXuX5X4XtXuXuXuXuXuXuXuXuXuXuXuXuXuX[.N O % % % % % % % % % % % y         ",
"        % - % % % % % % % o | 6XuXuXuXuXuXuXuXuXuXuXuXuXuXuXuXuXuXuXuXuXuXuXuXuXuXuXuXuXT.z O % % % % % % % % % % % - %         ",
"          y % % % % % % % % o ' #XuXuXuXuXuXuXuXuXuXuXuXuXuXuXuXuXuXuXuXuXuXuXuXuXuX6Xr.3 O % % % % % % % % % % % % y           ",
"          % e % % % % % % % % o n M.0XuXuXuXuXuXuXuXuXuXuXuXuXuXuXuXuXuXuXuXuXuX8XA.L o % % % % % % % % % % % % % e %           ",
"            q & % % % % % % % % O O P j.oXuXuXuXuXuXuXuXuXuXuXuXuXuXuXuXuX0X`.e.H O O % % % % % % % % % % % % % & q             ",
"            o y % % % % % % % % % % O o 0 ~ 6.V.=XuXuXuX9X7XyXuXuX5XL.f.#.G , o O % % % % % % % % % % % % % % % y o             ",
"              & t % % % % % % % % % % % % O o o R.uXuX6XR ) wXuXuXL.o o o O % % % % % % % % % % % % % % % % % t &               ",
"                = r % % % % % % % % % % % % % 7 oXuXuXXX% ) uXuXuXg.o % % % % % % % % % % % % % % % % % % % r =                 ",
"                  q e % % % % % % % % % % % O A uXuXuX~.X 6.uXuXuX:.o % % % % % % % % % % % % % % % % % % e q                   ",
"                    q e % % % % % % % % % % % l 5.5.5.[ o ( 5.5.5.V O % % % % % % % % % % % % % % % % % e q                     ",
"                      - t % % % % % % % % % % % o o o O % O o o o O % % % % % % % % % % % % % % % % % t -                       ",
"                        - y & % % % % % % % % % % % % % % % % % % % % % % % % % % % % % % % % % % & y -                         ",
"                          = q e % % % % % % % % % % % % % % % % % % % % % % % % % % % % % % % % e q =                           ",
"                              - y - % % % % % % % % % % % % % % % % % % % % % % % % % % % % - y -                               ",
"                                  - y - % % % % % % % % % % % % % % % % % % % % % % % % - y -                                   ",
"                                      - r r & % % % % % % % % % % % % % % % % % % & r r -                                       ",
"                                          = & r t q = % % % % % % % % % % = q t r & =                                           ",
"                                                - = & = r y e & & e y r = & = -                                                 ",
"                                                            % % % %                                                             "
};
