/* XPM */
static char *ebitcash128[] = {
/* columns rows colors chars-per-pixel */
"128 128 40 1 ",
"  c None",
". c #FFCC00",
"X c #FFCE0C",
"o c #FFD200",
"O c #FFCF12",
"+ c #FFD015",
"@ c #FFD11B",
"# c #FFD324",
"$ c #FFD52C",
"% c #FFD633",
"& c #FFD739",
"* c #FFD83D",
"= c #FFD943",
"- c #FFDB4C",
"; c #FFDD53",
": c #FFDE5C",
"> c #FFDF61",
", c #FFE064",
"< c #FFE26C",
"1 c #FFE374",
"2 c #FFE57B",
"3 c #FFE683",
"4 c #FFE789",
"5 c #FFE88D",
"6 c #FFEA94",
"7 c #FFEB9C",
"8 c #FFEDA3",
"9 c #FFEEAB",
"0 c #FFEFB1",
"q c #FFF1B6",
"w c #FFF1BB",
"e c #FFF3C4",
"r c #FFF5CA",
"t c #FFF6D3",
"y c #FFF7D8",
"u c #FFF8DB",
"i c #FFFAE4",
"p c #FFFBEC",
"a c #FFFCF2",
"s c #FFFFFF",
/* pixels */
"                                                            ........                                                            ",
"                                                    o....ooooo....ooooo...o.                                                    ",
"                                                ...oooo...o..............oooo...                                                ",
"                                            o.oooo............................ooo.o.                                            ",
"                                          ..oo....................................oo..                                          ",
"                                       ..oo.........................................ooo.o                                       ",
"                                     o.oo..............................................oo..                                     ",
"                                   .oo...........o........................................ooo                                   ",
"                                 ..o........................................................o..                                 ",
"                               .........................................o........................                               ",
"                              oo................................................................oo                              ",
"                            .oo...................................................................oo                            ",
"                           .o......................................................................oo                           ",
"                         .oo.........................................................................o.                         ",
"                        .oo...........................................................................oo                        ",
"                       oo..............................................................................oo                       ",
"                      oo................................................................................o.                      ",
"                     o........................................XOoX.XX....XX.XX.XX........................oo                     ",
"                    o........................................&ttuuuuu<...wyyyuuuwX.........................o                    ",
"                   oo........................................<sssssss>..+assssssw...........................o                   ",
"                  ...........................................6assssss%..%sssssss6............................o                  ",
"                 oo..........................................qssssssa@..:sssssss>.............................o                 ",
"                o............................................ussssssu...3sssssss-.............................oo                ",
"               oo...........................................Oassssss0...8ssssssa$..............................oo               ",
"              .o............................................&assssss5...rssssssiO...............................o.              ",
"             .o.............................................>assssss8::>psssssse.................................o.             ",
"             o.........................................O#;37ussssssssssssssssssi7<=+..............................o             ",
"            oo......................................&<0usssssssssssssssssssssssssssar6=O..........................oo            ",
"           .o....................................=6rassssssssssssssssssssssssssssssssssi7=.........................o.           ",
"           o.........o........................O2tsssssssssssssssssssssssssssssssssssssssssr:X......................oo           ",
"          .o................................#6isssssssssssssssssssssssssssssssssssssssssssssr;........................          ",
"         .o...............................O4asssssssssssssssssssssssssssssssssssssssssssssssss8#.....................o.         ",
"         ................................>issssssssssssssssssssssssssssssssssssssssssssssssssssi-.....................o         ",
"        .o.............................#0ssssssssssssssssssssssssssssssssssssssssssssssssssssssss<....................o.        ",
"        o.............................-issssssssssssssssssssssssssssssssssssssssssssssssssssssssss1.....................        ",
"       .o............................1sssssssssssssssssssssssssssssssssssssssssssssssssssssssssssss,.....................       ",
"       o............................6ssssssssssssssssssssssssssssssssssssssssssssssssssssssssssssssa=...................o       ",
"      .o..........................X6ssssssssssssssssssssssssssssssspppssssssssssssssssssssssssssssssuO..................o.      ",
"      o...........................6sssssssssssssssssssssssssssaq<=#++#*:9psssssssssssssssssssssssssss6...................o      ",
"     .o..........................3sssssssssssssssssssssssssss6$..........+3sssssssssssssssssssssssssss%..................o.     ",
"     .o.........................:sssssssssssssssssssssssssst=..............=asssssssssssssssssssssssss9................o...     ",
"     o.........................$psssssssssssssssssssssssssqO.......X........=sssssssssssssssssssssssssa$..................o     ",
"    .o........................Xrsssssssssssssssssssssssss0X......XOOOX.......5sssssssssssssssssssssssss5..................o.    ",
"    o.........................3sssssssssssssssssssssssssrO.....=7rppar7&.....#pssssssssssssssssssssssssuX...................    ",
"   .o...o....................%assssssssssssssssssssssssa$....#0sssssssss1.....8sssssssssssssssssssssssss*..................o.   ",
"   .o........................wsssssssssssssssssssssssss<....*isssssssssss;....:sssssssssssssssssssssssss1..................o.   ",
"   .........................-sssssssssssssssssssssssssr....#isssssssssssst....$sssssssssssssssssssssssssw...................o   ",
"   o........................esssssssssssssssssssssssss-....essssssssssssss%...OissssssssssssssssssssssssiX..................o   ",
"  .o.......................-sssssssssssssssssssssssssr....>sssssssssssssss;....yssssssssssssssssssssssssa$..................o.  ",
"  .o.......................wsssssssssssssssssssssssss>...Xrsssssssssssssss<....tsssssssssssssssssssssssss=..................o.  ",
"  .................o......%sssssssssssssssssssssssssp+...=ssssssssssssssss<....rsssssssssssssssssssssssss:..................o.  ",
"  o.......................5sssssssssssssssssssssssss9....6ssssssssssssssss<....tsssssssssssssssssssssssss1...................o  ",
" .o......................Xisssssssssssssssssssssssss>...Xtsssssssssssssssa-....usssssssssssssssssssssssss4...................o. ",
" .o......................;ssssssssssssssssssssssssss$....*=**=**=&=&=&&===O...Oasssssssssssssssssssssssss6...................o. ",
" .o......................7ssssssssssssssssssssssssstX.........................#asssssssssssssssssssssssss6...................o. ",
" .o.....................Xisssssssssssssssssssssssss9..........................=ssssssssssssssssssssssssss6..................... ",
" .......................*ssssssssssssssssssssssssss1..........................:ssssssssssssssssssssssssss5..................... ",
" .......................2ssssssssssssssssssssssssss>OXXOOXXOOXXOOXOXXOOXOOOOOO6ssssssssssssssssssssssssss4....................o ",
" o......................wsssssssssssssssssssssssssspiiiiiiiiiiiiiiiiiiupuuiuiupssssssssssssssssssssssssss1....................o ",
" o.....................Oissssssssssssssssssssssssssssssssssssssssssssssssssssssssssssssssssssssssssssssss>....................o ",
".o.....................%sssssssssssssssssssssssssssssssssssssssssssssssssssssssssssssssssssssssssssssssss-.....o..............o.",
".o.....................,sssssssssssssssssssssssssssssssssssssssssssssssssssssssssssssssssssssssssssssssss%....................o.",
".o.....................6ssssssssssssssssssssssssssssssssssssssssssssssssssssssssssssssssssssssssssssssssa#......................",
".......................wssssssssssssssssssssssssssssssssssssssssssssssssssssssssssssssssssssssssssssssssuX......................",
"......................Xtsssssssssssssssssssssssssssssssssssssssssssssssssssssssssssssssssssssssssssssssse.......................",
"......................Oissssssssssssssssssssssssssssssssssssssssssssssssssssssssssssssssssssssssssssssss6.......................",
"......................%sssssssssssssssssssssssssssssssssssssssssssssssssssssssssssssssssssssssssssssssss<.......................",
"......................-sssssssssssssssssssssssssssssssssssssssssssssssssssssssssssssssssssssssssssssssss=.......................",
" o....................>sssssssssssssssssssssssssssssssssssssssssssssssssssssssssssssssaasssssssssssasssiO...................... ",
" .....................<assssssssssssssssssssssssssssssssssssaassssssssssssssssssaasssssassaasssassaaassr......................o ",
" .....................3sssssssssssssssssssssssssa9&&&&=&&&&&&&&=&&&&&$&&$&&&$&$&%%%%%%%%%%%%$%%%#$%%%%%O....................... ",
" .....................4ssssssssssssssssssssssssss;............................................................................. ",
" .....................6asssssssssssssssssssssssss%............................................................................. ",
" .o...................6sssssssssssssssssssssssssaO...........................................................................o. ",
" .o...................6ssssssssssssssssssssssssst.....OOOOOOOOOO#OOOO##....O#OO##OOO#OO#O#O##O#OO##OO#O......................o. ",
" .oo..................4sssssssssssssssssssssssssr....:iaiaiiaaaiaaaiaatO..Xraaaaaaaaaaaaaaaaaaiaaaaaaa#......................o. ",
"  o...................2assssssssssssssssssssssssq....3aassssssssassssse...#pssssssssssssasssssssassssq...............o.......o  ",
"  ....................<assssssssssssssssssssssssq....4ssssssssssasssss2...=sssssssssssssassssssssssss-........................  ",
"  .o..................-asssssssssssssssssssssssse....3sssssssssssssssa#...2sssssssssssssssssssssssssr.......................o.  ",
"  .o..................%assssssssssssssssssssssaar....:ssssssssssssssae....qsssssssssssssssssssssssss<.......................o.  ",
"   o..................OuasssssssssssssssssssssssuO...=sssssssssssssss-...#assssssssssssssssssssssssyX.......................o   ",
"   o...................essssssssssssssssssssssssa#....usssssssssssssq....3assssssssssssssssssssssss>.......................o.   ",
"   .o..................3ssssssssssssssssssssssssa;....2asssssssssssi#...Ousssssssssssssssssssssssse........................o.   ",
"   .o..................=ssssssssssssssssssssssssa7.....qssssssssssu=....3ssassssssssssssssssssssss*........................o.   ",
"    ...................Oussssssssssssssssssssssssi#....O6saassaaa9#....&paaasssssssssssssssssssss6..........................    ",
"    .o..................6sssssssssssssssssssssssss6......%28eq8<&.....@yssaassssssssssssssssssssyX........................oo    ",
"     o.....o............&assssssssssssssssssssssssa-.................#tasssssssssssssssssssssssa=.........................o     ",
"     .o..................qsssssssssssssssssssssssaaa-...............-iaassssssssssssssssssssssa2.........................o.     ",
"     .o..................=sssssssssssssssssssssssssss3O...........$7ssssssssssssssssssssssssas8..........................o.     ",
"      o...................7sssssssssssssssssssssssssssu6-#OXOOO&1wssssssssssssssssssssssssssaeO..........................o      ",
"      .o..................#usssssssssssssssssssssssssssssauutiassssssssssssssssssssssssssssstO..........................o.      ",
"       o...................-ssssssssssssssssssssssssssssssssssssssssssssssssssssssssssssssseO..................o........o       ",
"       .o...................2ssssssssssssssssssssssssssssssssssssssssssssssssssssssssssssseO...........................o.       ",
"        o....................4sssssssssssssssssssssssssssssssssssssssssssssssssssssssssss6.............................o        ",
"        .o....................3ssssssssssssssssssssssssssssssssssssssssssssssssssssssssa:.............................o.        ",
"         o.....................<isssssssssssssssssssssssssssssssssssssssssssssssssssssq#...............................         ",
"         .o.....................%wssssssssssssssssssssssssssssssssssssssssssssssssssu,...............................o.         ",
"          .o.....................X>issssssssssssssssssssssssssssssssssssssssssssssu1O...............................o.          ",
"           o.......................O2usssssssssssssssssssssssssssssssssssssssssse>O.................................o           ",
"           .o........................O:0asssssssssssssssssssssssssssssssssssay4*...................................o.           ",
"            .o..........................#>9usssssssssssssssssssssssssssssi01%X....................................o.            ",
"             oo............................X%:60isssssssaasssssssssar94:$O........................................o             ",
"             .o.................................5sssssss6226sssssss6.............................................oo             ",
"              .o................................0ssssssaO..-sssssss1............................................o.              ",
"               .o..............................XtssssssyX..1sssssss-...........................................o.               ",
"                .o.............................+pssssssw...8sssssss$..........................................oo                ",
"                 o.............................%sssssss7...essssssiO..........................................o                 ",
"                  oo...........................;sssssss<..Ousssassr...........................o..............o                  ",
"                   o...........................4sssssss=..%sssaass9.........................................o                   ",
"                    o.....o....................$--;=;==O..O-------$........................................o                    ",
"                     oo...................................................................................o                     ",
"                      .o................................................................................oo                      ",
"                       .o........................o...................................o.................oo                       ",
"                        oo...........................................................................oo.                        ",
"                         .o.........................................................................oo.                         ",
"                           oo......................................................................o.                           ",
"                            ooo...............o..................................................oo.                            ",
"                              oo................................................................oo                              ",
"                               ..o............................................................o.o                               ",
"                                 ooo........................................................ooo                                 ",
"                                   ooo....................................................oo.                                   ",
"                                     .ooo...............................................oo.                                     ",
"                                       ..oo........................................o.oo..                                       ",
"                                          .ooo....................................oo.o                                          ",
"                                            .o.ooo.........................o...ooo..                                            ",
"                                                .o.ooooo.................ooo....                                                ",
"                                                    .....ooooo....ooooo.....                                                    ",
"                                                            ........                                                            "
};
