/* XPM */
static char *ebitcash32[] = {
/* columns rows colors chars-per-pixel */
"32 32 151 2 ",
"   c None",
".  c #FFC900",
"X  c #FFCA00",
"o  c #FFCB00",
"O  c #FFCC00",
"+  c #FFCD00",
"@  c #FFCE00",
"#  c #FFCF00",
"$  c #FFCC02",
"%  c #FFCD04",
"&  c #FFCD05",
"*  c #FFCD06",
"=  c #FFCD07",
"-  c #FFCD08",
";  c #FFCE09",
":  c #FFCE0A",
">  c #FFCE0B",
",  c #FFCE0C",
"<  c #FFCE0D",
"1  c #FFD000",
"2  c #FFD100",
"3  c #FFD200",
"4  c #FFD400",
"5  c #FFD500",
"6  c #FFD012",
"7  c #FFD014",
"8  c #FFD015",
"9  c #FFD016",
"0  c #FFD017",
"q  c #FFD117",
"w  c #FFD018",
"e  c #FFD119",
"r  c #FFD11A",
"t  c #FFD11B",
"y  c #FFD11C",
"u  c #FFD11D",
"i  c #FFD21D",
"p  c #FFD11E",
"a  c #FFD11F",
"s  c #FFD21E",
"d  c #FFD21F",
"f  c #FFD120",
"g  c #FFD220",
"h  c #FFD221",
"j  c #FFD321",
"k  c #FFD224",
"l  c #FFD326",
"z  c #FFD429",
"x  c #FFD42A",
"c  c #FFD52B",
"v  c #FFD42C",
"b  c #FFD52E",
"n  c #FFD634",
"m  c #FFD736",
"M  c #FFD737",
"N  c #FFD739",
"B  c #FFD73B",
"V  c #FFD83A",
"C  c #FFD83E",
"Z  c #FFD83F",
"A  c #FFD942",
"S  c #FFD943",
"D  c #FFDA47",
"F  c #FFDA48",
"G  c #FFDB49",
"H  c #FFDB4A",
"J  c #FFDB4C",
"K  c #FFDB4E",
"L  c #FFDC51",
"P  c #FFDD55",
"I  c #FFDE5A",
"U  c #FFDF5D",
"Y  c #FFDF5F",
"T  c #FFE064",
"R  c #FFE065",
"E  c #FFE167",
"W  c #FFE16A",
"Q  c #FFE16B",
"!  c #FFE26F",
"~  c #FFE170",
"^  c #FFE477",
"/  c #FFE478",
"(  c #FFE479",
")  c #FFE47A",
"_  c #FFE57A",
"`  c #FFE57B",
"'  c #FFE57C",
"]  c #FFE47E",
"[  c #FFE57E",
"{  c #FFE57F",
"}  c #FFE580",
"|  c #FFE685",
" . c #FFE786",
".. c #FFE787",
"X. c #FFE889",
"o. c #FFE88A",
"O. c #FFE88D",
"+. c #FFEB99",
"@. c #FFEB9F",
"#. c #FFECA0",
"$. c #FFECA2",
"%. c #FFECA3",
"&. c #FFEDA4",
"*. c #FFEDA7",
"=. c #FFEEA8",
"-. c #FFEEAB",
";. c #FFEEAC",
":. c #FFEEAD",
">. c #FFEFAF",
",. c #FFF0B3",
"<. c #FFF0B4",
"1. c #FFF1BB",
"2. c #FFF3C1",
"3. c #FFF3C4",
"4. c #FFF4CA",
"5. c #FFF5CE",
"6. c #FFF5CF",
"7. c #FFF6D0",
"8. c #FFF6D2",
"9. c #FFF6D3",
"0. c #FFF6D4",
"q. c #FFF7D5",
"w. c #FFF7D6",
"e. c #FFF7D7",
"r. c #FFF7D9",
"t. c #FFF7DA",
"y. c #FFF8DA",
"u. c #FFF8DB",
"i. c #FFF8DD",
"p. c #FFF8DE",
"a. c #FFF9DF",
"s. c #FFF9E2",
"d. c #FFFAE4",
"f. c #FFFAE6",
"g. c #FFFAE8",
"h. c #FFFBEB",
"j. c #FFFCEE",
"k. c #FFFCEF",
"l. c #FFFCF0",
"z. c #FFFCF2",
"x. c #FFFDF3",
"c. c #FFFDF4",
"v. c #FFFDF6",
"b. c #FFFEF8",
"n. c #FFFEF9",
"m. c #FFFEFA",
"M. c #FFFEFB",
"N. c #FFFEFC",
"B. c #FFFFFD",
"V. c #FFFFFE",
"C. c white",
/* pixels */
"                              + O                               ",
"                    1 # + 3 4 # # 4 3 + # 1                     ",
"                @ @ 5 1 + O O O O O O + 1 5 @ @                 ",
"              1 5 @ O O O O O o o O o o O O @ 5 1               ",
"            1 1 O O O O O O O d V 7 z V : O O O 1 1             ",
"          1 @ O O O O O O O . $.C.A 5.x.9 o O O O @ 1           ",
"        1 @ O O O O O o X > x 8.V.| z.s.x & X o O O @ 1         ",
"      @ 1 O O O O o o B +.t.b.C.C.C.C.V.c.5.) 7 o O O 1 @       ",
"    o 5 O O O O o 0 #.M.C.C.C.C.C.C.C.C.C.C.C.e.n o O O 5 o     ",
"    + @ O O O o g 6.C.C.C.C.C.f.;.:.g.C.C.C.C.C.a.t o O @ +     ",
"  O 5 O O O O , 3.C.C.C.C.C.>.y d 8 p 0.C.C.C.C.C.X.X O O 5 O   ",
"  O 2 O O O X _ C.C.C.C.C.0.9 %.v.h.N E C.C.C.C.C.e.- O O 2 O   ",
"  + + O O O 8 f.C.C.C.C.C.U W C.C.C. .A C.C.C.C.C.c.j o O + +   ",
"  3 O O O X Y C.C.C.C.C.x.8 n P P P k L C.C.C.C.C.N.b o O O 3   ",
"  5 O O O X *.C.C.C.C.C.j.` ! Q Q Q ~ ,.C.C.C.C.C.m.c o O O 5   ",
"O # O O O * w.C.C.C.C.C.C.C.C.C.C.C.C.C.C.C.C.C.C.l.t o O O # O ",
"O # O O o r k.C.C.C.C.C.C.C.C.C.C.C.C.C.C.C.C.C.C.i.= O O O # O ",
"  5 O O o x m.C.C.C.C.C.1.] ) ) ( ' { / / / / ^ ^ I O O O O 5   ",
"  3 O O o b N.C.C.C.C.C.J a D F G b , H H H H H J 6 o O O O 3   ",
"  + + O o j c.C.C.C.C.C.C o.C.C.C.' R C.C.C.C.C.z.s o O O + +   ",
"  O 2 O O ; r.C.C.C.C.C.T Z n.C.8.e 2.C.C.C.C.C.[ X O O O 2 O   ",
"  @ 5 O O X O.C.C.C.C.C.q.a v S f ..C.C.C.C.C.4.< O O O O 5 O   ",
"    + @ O o u s.C.C.C.C.C.f.&.@.q.C.C.C.C.C.r.l o O O O @ +     ",
"    o 5 O O o N u.C.C.C.C.C.C.C.C.C.C.C.C.<.h o O O O O 5 o     ",
"      @ 1 O O o w } 9.b.C.C.C.C.C.B.d.-.K $ o O O O O 1 @       ",
"        1 @ O O o X = c u.n.o.M.p.m 6 o X O O O O O @ 1         ",
"          1 @ O O O o > y.7.M l.=.X O O O O O O O @ 1           ",
"            1 1 O O O % i q ; s 6 O O O O O O O 1 1             ",
"              1 5 @ O O o o O o O O O O O O @ 5 1               ",
"                @ @ 5 1 + O O O O O O + 1 5 @ @                 ",
"                    1 # + 3 4 # # 4 3 + # 1                     ",
"                              + +                               "
};
